<svg id="Layer_1" xmlns="http://www.w3.org/2000/svg" viewBox="0 0 486.5 105.4"><style>.st0,.st1{fill:#FFF}</style><path class="st0" d="M153.4 48.6h-17.6c-2.5 0-4.5-2-4.5-4.5V6.9c0-2.5 2-4.5 4.5-4.5h17c8.2 0 13.1 5 13.1 11.8 0 5.8-3.8 9.7-8.1 10.6 4.9.8 9 5.7 9 11.3 0 7.3-4.8 12.5-13.4 12.5zm-1.8-40.1h-13.4V22h13.4c4.6 0 7.3-2.9 7.3-6.8 0-3.8-2.6-6.7-7.3-6.7zm.3 19.5h-13.7v14.5h13.7c5 0 7.9-2.8 7.9-7.3 0-3.8-2.7-7.2-7.9-7.2zM203 33.9h-23.2c.5 5.7 4.6 10.6 11.4 10.6 2.8 0 5.9-1 8.3-2.8.4-.2.9-.3 1.4-.3 1.1 0 2.5 1 2.5 2.5 0 3.7-8.6 5.6-12.8 5.6-10 0-17.2-7.1-17.2-17.6 0-9.7 7-17.5 16.7-17.5 8.1 0 13.6 5.1 15.6 12.5.3 1.1.6 2.6.6 3.9-.2 1.6-1.6 3.1-3.3 3.1zm-13.1-14.6c-6.6 0-9.9 5.5-10.2 10.2h20.5c-.2-4.5-3.2-10.2-10.3-10.2zM241.7 33.9h-23.2c.5 5.7 4.6 10.6 11.4 10.6 2.8 0 5.9-1 8.3-2.8.4-.2.9-.3 1.4-.3 1.1 0 2.5 1 2.5 2.5 0 3.7-8.6 5.6-12.8 5.6-10 0-17.2-7.1-17.2-17.6 0-9.7 7-17.5 16.7-17.5 8.1 0 13.6 5.1 15.6 12.5.3 1.1.6 2.6.6 3.9-.1 1.6-1.6 3.1-3.3 3.1zm-13.1-14.6c-6.6 0-9.9 5.5-10.2 10.2h20.5c-.1-4.5-3.2-10.2-10.3-10.2zM278.6 45.3c-2.5 2.4-5.9 4.1-10.9 4.1-10 0-16.9-7.5-16.9-17.6 0-10 6.9-17.5 16.9-17.5 5.1 0 8.9 1.8 11.1 4.4.3.4.5.9.5 1.5 0 1.5-1.3 2.8-2.8 2.8-.7 0-1.4-.3-1.9-.8-1.9-1.7-4.1-2.4-6.5-2.4-6.6 0-10.9 5.1-10.9 12 0 7 4.3 12.1 10.9 12.1 2.5 0 4.6-.8 6.5-2.5.6-.4 1.2-.6 1.9-.6 1.5 0 2.9 1.1 2.9 2.7 0 .7-.3 1.4-.8 1.8zM312.7 49c-1.7 0-3-1.4-3-3V27c0-5.5-2.9-7.2-7.2-7.2-3.9 0-7.4 2.4-9.3 4.9V46c0 1.7-1.4 3-3.1 3-1.7 0-3-1.4-3-3V5c0-1.6 1.4-3 3.2-3 1.6 0 3 1.4 3 3v14.9c2.3-2.7 6.7-5.5 11.9-5.5 7.1 0 10.7 3.5 10.7 10.6v21c0 1.6-1.4 3-3.2 3zM370.6 18.6l-8.7 27.6c-.5 1.7-2.1 2.8-3.9 2.8h-.1c-1.8 0-3.3-1.2-3.9-2.8l-7.5-23.3-7.5 23.3c-.5 1.7-2.1 2.8-3.9 2.8h-.1c-1.7 0-3.3-1.2-3.8-2.8l-8.7-27.6c-.1-.3-.1-.6-.1-.8 0-1.5 1.2-3 3-3 1.3 0 2.6.8 3 2.1l7.1 23.9 7.7-23.6c.5-1.4 1.7-2.4 3.4-2.4 1.5 0 2.7 1 3.2 2.4l7.8 23.6 7.1-23.9c.3-1.2 1.6-2.1 2.9-2.1 1.8 0 3 1.4 3 3 .1.2 0 .5 0 .8zM392 49.4c-10.4 0-16.8-8-16.8-17.6 0-9.6 6.4-17.5 16.8-17.5s16.9 7.9 16.9 17.5c0 9.7-6.4 17.6-16.9 17.6zm0-29.6c-6.6 0-10.4 5.7-10.4 12 0 6.4 3.8 12.1 10.4 12.1 6.7 0 10.4-5.7 10.4-12.1.1-6.3-3.7-12-10.4-12zM431.7 49.4c-10.4 0-16.8-8-16.8-17.6 0-9.6 6.4-17.5 16.8-17.5s16.9 7.9 16.9 17.5c-.1 9.7-6.5 17.6-16.9 17.6zm0-29.6c-6.6 0-10.4 5.7-10.4 12 0 6.4 3.8 12.1 10.4 12.1 6.7 0 10.4-5.7 10.4-12.1 0-6.3-3.7-12-10.4-12zM483.4 49c-1.7 0-3-1.4-3-3v-2.1c-2.6 3.3-6.5 5.6-11 5.6-8.6 0-14.9-6.6-14.9-17.5 0-10.7 6.2-17.6 14.9-17.6 4.4 0 8.3 2.1 11 5.7V5c0-1.6 1.4-3 3.2-3 1.6 0 3 1.4 3 3v41c-.1 1.6-1.5 3-3.2 3zm-3-24.2c-1.7-2.7-5.5-5-9.4-5-6.2 0-10.1 5.1-10.1 12.1s3.9 12 10.1 12c3.9 0 7.7-2.1 9.4-4.9V24.8zM174.4 105c-1.9 0-3.5-1.5-3.5-3.4V68.1l-14.7 35.8c-.3.6-.9 1.1-1.8 1.1-.7 0-1.4-.5-1.7-1.1l-14.6-35.8v33.5c0 1.9-1.5 3.4-3.5 3.4-1.9 0-3.4-1.5-3.4-3.4V63.1c0-2.6 2.2-4.9 5-4.9 2.6-.1 5.1 1 6 3.4l12.2 29.7 12.2-29.7c.8-2.1 2.9-3.4 5.1-3.4 3.1-.1 5.9 1.9 5.9 4.9v38.5c.2 1.9-1.3 3.4-3.2 3.4zM215.6 89.8h-23.2c.5 5.7 4.6 10.6 11.4 10.6 2.8 0 5.9-1 8.3-2.8.4-.2.9-.3 1.4-.3 1.1 0 2.5 1 2.5 2.5 0 3.7-8.6 5.6-12.8 5.6-10 0-17.2-7.1-17.2-17.6 0-9.7 7-17.5 16.7-17.5 8.1 0 13.6 5.1 15.6 12.5.3 1.1.6 2.6.6 3.9-.1 1.7-1.6 3.1-3.3 3.1zm-13.1-14.5c-6.6 0-9.9 5.5-10.2 10.2h20.5c-.1-4.5-3.1-10.2-10.3-10.2zM270.3 105c-1.7 0-3-1.4-3-3V82.3c0-3.9-1.7-6.5-5.8-6.5-3.4 0-6.8 2.4-8.4 4.8v21.3c0 1.7-1.4 3-3.1 3-1.7 0-3-1.4-3-3V82.3c0-3.9-1.7-6.5-5.9-6.5-3.3 0-6.6 2.4-8.2 4.9v21.2c0 1.7-1.4 3-3.1 3-1.7 0-3-1.4-3-3V73.7c0-1.6 1.4-3 3.2-3 1.6 0 3 1.4 3 3v2.1c1.4-2.1 5.8-5.5 10.8-5.5 5.1 0 8 2.6 9.1 6.2 1.9-3 6.4-6.2 11.3-6.2 6.2 0 9.5 3.3 9.5 10.1v21.5c-.3 1.7-1.6 3.1-3.4 3.1zM298.2 105.4c-10.4 0-16.8-8-16.8-17.6s6.4-17.5 16.8-17.5 16.9 7.9 16.9 17.5-6.4 17.6-16.9 17.6zm0-29.6c-6.6 0-10.4 5.7-10.4 12 0 6.4 3.8 12.1 10.4 12.1 6.7 0 10.4-5.7 10.4-12.1.1-6.3-3.7-12-10.4-12zM337.5 76.7c-3.2.3-6.3 1.7-8.3 4.6v20.6c0 1.7-1.4 3-3.1 3h-.1c-1.7-.1-3-1.4-3-3V73.7c0-1.6 1.4-3 3.2-3 1.6 0 3 1.4 3 3v2.6c1.9-2.6 4.9-5.7 8.6-5.7 1.6 0 2.8 1.2 2.8 2.8 0 1.8-1.4 3.2-3.1 3.3zM353.4 62.8c0 2.1-1.7 3.9-3.9 3.9-2.1 0-3.9-1.8-3.9-3.9 0-2.2 1.8-4 3.9-4 2.2 0 3.9 1.8 3.9 4zm-3.9 42.2c-1.7 0-3-1.4-3-3V73.7c0-1.6 1.4-3 3.2-3 1.6 0 3 1.4 3 3v28.2c-.1 1.7-1.5 3.1-3.2 3.1zM386.3 105h-.2c-1.2 0-2.8-1-2.8-3v-1.1c-2.7 3-6.5 4.6-11 4.6-5.5 0-11.6-3.7-11.6-11.1 0-7.5 6.1-10.9 11.6-10.9 4.6 0 8.4 1.5 11 4.4v-5.6c0-4.2-3.5-6.7-8.2-6.7-3.1 0-5.9 1-8.4 2.9-.5.3-1 .6-1.5.6-1.2 0-2.6-1-2.6-2.4 0-.6.2-1.1.6-1.6 3.2-3.2 8.2-4.6 12.7-4.6 7.2 0 13.4 3.1 13.4 11.6v20c.1 1.5-1.3 2.9-3 2.9zm-3.1-13.4c-1.9-2.6-5.2-3.9-8.6-3.9-4.5 0-7.7 2.8-7.7 6.8 0 3.9 3.3 6.6 7.7 6.6 3.5 0 6.8-1.2 8.6-3.8v-5.7zM402.3 105c-1.7 0-3-1.4-3-3V61c0-1.6 1.4-3 3.2-3 1.6 0 3 1.4 3 3v41c-.1 1.6-1.4 3-3.2 3z"/><g><path class="st0" d="M44.6 75C44.2 74.7 33 64.5 33 52.3c0-14.8 9.1-23.7 24.2-23.7 8.9 0 17.2 7 21.2 10.9 3.9-3.8 11.8-10.5 20.4-10.9C90.2 11.7 72.6 0 52.2 0 23.4 0 0 23.4 0 52.2s23.4 52.2 52.2 52.2c6.7 0 13.2-1.3 19.1-3.6L44.6 75z"/><path class="st0" d="M112 79.9c0 1.2-1 2.2-2.2 2.2h-9.6v9.6c0 1.2-1 2.2-2.2 2.2h-4.4c-1.2 0-2.2-1-2.2-2.2v-9.6h-9.6c-1.2 0-2.2-1-2.2-2.2v-4.4c0-1.2 1-2.2 2.2-2.2h9.6v-9.6c0-1.2 1-2.2 2.2-2.2H98c1.2 0 2.2 1 2.2 2.2v9.6h9.6c1.2 0 2.2 1 2.2 2.2v4.4z"/></g></svg>